<?xml version="1.0" encoding="UTF-8"?>
<svg version="1.1" xmlns="http://www.w3.org/2000/svg" width="2779" height="2779">
<path d="M0 0 C4.22027182 0.00544467 8.44053056 -0.00092632 12.66080098 -0.0056737 C20.06264297 -0.01241632 27.46445543 -0.01182842 34.86629801 -0.00630661 C45.94713108 0.00192221 57.02794047 -0.00149093 68.10877411 -0.00707189 C86.99937769 -0.01624894 105.88997048 -0.01598309 124.78057503 -0.01051014 C143.91437776 -0.00500055 163.04817339 -0.00385262 182.18197655 -0.00798481 C183.39213429 -0.00824315 184.60229203 -0.0085015 185.84912122 -0.00876767 C190.77820113 -0.00983426 195.70728103 -0.01093168 200.63636093 -0.01206822 C246.50936508 -0.02263811 292.38236493 -0.02337547 338.25536941 -0.01777332 C339.62744774 -0.01760605 340.99952606 -0.01743878 342.37160438 -0.01727153 C343.0516156 -0.01718862 343.73162681 -0.01710571 344.43224442 -0.01702028 C353.40036853 -0.01592718 362.36849263 -0.01485396 371.33661674 -0.01383369 C372.02217777 -0.01375537 372.7077388 -0.01367705 373.4140744 -0.01359635 C405.20819425 -0.00999112 437.00231347 -0.0108518 468.79643341 -0.0126946 C472.26673982 -0.0128942 475.73704622 -0.01308519 479.20735262 -0.01327715 C489.66771201 -0.01385835 500.12807139 -0.01445224 510.58843077 -0.01507235 C542.4849812 -0.01696125 574.38153164 -0.01816185 606.27808212 -0.01876896 C607.34331012 -0.01878956 607.34331012 -0.01878956 608.43005787 -0.01881058 C654.4093119 -0.01968784 700.38856524 -0.01748767 746.36781906 -0.0130698 C747.10164742 -0.01299956 747.83547578 -0.01292932 748.59154137 -0.01285696 C773.16992782 -0.01050437 797.74831425 -0.00799218 822.32670068 -0.0054637 C896.6481167 0.00217688 970.96953019 0.00636438 1103.69938016 -0.00569436 C1128.2716143 -0.00822085 1152.84384845 -0.01071793 1177.41608261 -0.0130698 C1178.14970565 -0.01314029 1178.8833287 -0.01321078 1179.63918274 -0.0132834 C1225.59472844 -0.0176952 1271.55027364 -0.0196579 1317.50581955 -0.01876896 C1318.57069057 -0.01874869 1318.57069057 -0.01874869 1319.65707414 -0.01872801 C1351.53602438 -0.01811452 1383.41497458 -0.01683781 1415.29392477 -0.01494795 C1425.74961932 -0.01432887 1436.20531387 -0.0137402 1446.66100842 -0.01316185 C1450.12931162 -0.01296987 1453.59761482 -0.01277516 1457.06591802 -0.01257413 C1488.85970731 -0.01073697 1520.65349575 -0.0102014 1552.44728493 -0.01383369 C1553.1324098 -0.01391163 1553.81753467 -0.01398958 1554.5234209 -0.01406988 C1563.4863797 -0.01509341 1572.4493385 -0.0161787 1581.41229729 -0.01727153 C1582.09176918 -0.01735435 1582.77124107 -0.01743718 1583.47130302 -0.01752252 C1584.84213 -0.01768964 1586.21295697 -0.0178569 1587.58378395 -0.01802431 C1634.00973159 -0.02367922 1680.43567428 -0.0219167 1726.86162149 -0.01121183 C1731.77505603 -0.01010714 1736.68849057 -0.00903373 1741.60192512 -0.00798481 C1743.41066806 -0.00759419 1743.41066806 -0.00759419 1745.25595126 -0.00719567 C1764.33687969 -0.00325338 1783.41780102 -0.00599472 1802.49872882 -0.01152282 C1821.26805914 -0.01681791 1840.03737751 -0.01494799 1858.80670632 -0.00549464 C1869.80490598 -0.00016633 1880.80307282 -0.00025313 1891.80127089 -0.00845784 C1899.11591449 -0.01336405 1906.43053267 -0.01095236 1913.74517322 -0.00272413 C1917.88485586 0.00173231 1922.02447341 0.00322072 1926.16415301 -0.00435716 C1948.87467173 -0.04306219 1971.44559511 0.63320253 1993.95445084 3.94231732 C1995.09535171 4.10965374 1996.23625259 4.27699017 1997.41172623 4.4493974 C2022.02154533 8.23258129 2045.80712292 14.28569084 2069.39195084 22.25481732 C2070.91151382 22.76746136 2070.91151382 22.76746136 2072.46177505 23.29046185 C2090.75715385 29.53952582 2108.26950619 37.4020618 2125.44419693 46.25432904 C2127.39633079 47.25706714 2129.35666971 48.24233439 2131.31773209 49.22747357 C2160.2035636 63.92745539 2187.15779389 83.09870999 2210.98570084 105.05950482 C2212.32879325 106.28485861 2213.68034692 107.50163444 2215.06162857 108.6837724 C2220.62872208 113.45384782 2225.84042953 118.55008411 2231.01035904 123.74285443 C2232.45220305 125.19006117 2233.89932199 126.63183758 2235.34702896 128.07317669 C2240.57420198 133.29587266 2245.62752433 138.60545344 2250.39195084 144.25481732 C2250.93247086 144.88863324 2251.47299087 145.52244915 2252.02989029 146.17547162 C2318.94185282 225.0589667 2351.61966276 323.72752482 2351.52058529 426.54972107 C2351.52193399 428.98192655 2351.52371903 431.41413182 2351.52589752 433.8463367 C2351.52962581 439.12487105 2351.5302899 444.40339227 2351.52819158 449.68192654 C2351.52506757 457.5842534 2351.52774229 465.4865713 2351.53149029 473.38889752 C2351.53770947 486.8612444 2351.53919856 500.33358806 2351.53807281 513.80593617 C2351.53694694 527.45192377 2351.53798739 541.09790865 2351.54164528 554.74389584 C2351.54187493 555.60700442 2351.54210458 556.470113 2351.5423412 557.35937638 C2351.54328288 560.87492365 2351.54423857 564.39047092 2351.54521239 567.90601818 C2351.55534776 604.54920358 2351.55841804 641.19238744 2351.5590045 677.83557408 C2351.55906925 681.77780769 2351.55913719 685.7200413 2351.55920791 689.66227491 C2351.55922491 690.64059259 2351.55924191 691.61891028 2351.55925943 692.62687395 C2351.55966818 714.32214243 2351.56185903 736.01741061 2351.56436375 757.71267893 C2351.56539213 766.65069724 2351.56638218 775.58871557 2351.56738 784.52673389 C2351.56754588 786.00817354 2351.56754588 786.00817354 2351.56771512 787.51954126 C2351.57403794 844.10452942 2351.57816437 900.68951739 2351.57770657 957.27450592 C2351.57769079 959.39143429 2351.57767505 961.50836266 2351.57765936 963.62529103 C2351.57758598 973.18268634 2351.57749781 982.74008165 2351.57740547 992.29747696 C2351.57736435 996.55921258 2351.5773242 1000.8209482 2351.57728416 1005.08268382 C2351.57726376 1007.21575773 2351.57724274 1009.34883164 2351.5772211 1011.48190555 C2351.57654099 1078.91915117 2351.58385643 1146.35639153 2351.59776138 1213.79363568 C2351.60126254 1230.78300696 2351.60473207 1247.77237825 2351.60802578 1264.76174958 C2351.60833009 1266.33100889 2351.60833009 1266.33100889 2351.60864055 1267.93197041 C2351.61485806 1300.18944352 2351.6186216 1332.4469162 2351.61988377 1364.70438988 C2351.61992372 1365.71753907 2351.61996367 1366.73068825 2351.62000483 1367.77453893 C2351.62085821 1390.01848743 2351.62111926 1412.2624359 2351.62083445 1434.50638441 C2351.62073797 1442.46623136 2351.62068593 1450.4260783 2351.62065572 1458.38592525 C2351.62064781 1460.36605108 2351.6206376 1462.3461769 2351.6206251 1464.32630272 C2351.62044897 1495.84212142 2351.62613877 1527.35793562 2351.63477892 1558.87375303 C2351.64344009 1590.62775253 2351.64561049 1622.3817458 2351.63901759 1654.13574599 C2351.63810539 1658.53060635 2351.63726209 1662.92546673 2351.63645958 1667.32032711 C2351.63621945 1668.61250382 2351.63621945 1668.61250382 2351.63597447 1669.93078511 C2351.63362813 1683.53106136 2351.63796357 1697.13132677 2351.64513077 1710.73160098 C2351.65204934 1724.12856331 2351.65174553 1737.52550976 2351.64393863 1750.92247175 C2351.63996108 1758.07883594 2351.63905591 1765.23516512 2351.64739598 1772.39152651 C2351.7378253 1854.25048526 2340.85795686 1927.45643817 2303.39195084 2001.25481732 C2302.71277603 2002.60615765 2302.71277603 2002.60615765 2302.01988052 2003.98479779 C2296.23326702 2015.38993959 2289.39974267 2026.05417853 2282.32945084 2036.69231732 C2281.91201614 2037.32153088 2281.49458145 2037.95074444 2281.06449722 2038.59902508 C2270.72327213 2054.13120044 2259.32439302 2068.89385087 2246.72788834 2082.67278607 C2245.45161228 2084.0835193 2244.18176787 2085.50061609 2242.94541763 2086.94646771 C2238.18134406 2092.50608707 2233.0898965 2097.7100537 2227.90391373 2102.87322552 C2226.45670698 2104.31506953 2225.01493058 2105.76218847 2223.57359146 2107.20989544 C2218.35089549 2112.43706846 2213.04131472 2117.49039081 2207.39195084 2122.25481732 C2206.75813492 2122.79533734 2206.124319 2123.33585736 2205.47129654 2123.89275677 C2194.83678491 2132.91335154 2183.82914668 2141.28126016 2172.39195084 2149.25481732 C2171.77706802 2149.68713665 2171.16218521 2150.11945599 2170.52866959 2150.56487591 C2158.6250545 2158.89542694 2146.0257544 2166.10012724 2133.39195084 2173.25481732 C2132.62093033 2173.69213177 2131.84990982 2174.12944622 2131.05552505 2174.58001263 C2110.55719539 2186.09635558 2088.6449128 2194.78758933 2066.39195084 2202.25481732 C2065.36553482 2202.601414 2064.3391188 2202.94801068 2063.28159927 2203.30511029 C2040.68272809 2210.84396907 2017.51738045 2216.1197343 1993.95445084 2219.56731732 C1992.95236587 2219.71459271 1991.95028091 2219.8618681 1990.91782974 2220.01360638 C1968.59267946 2223.0317603 1946.27167264 2223.55079957 1923.78390167 2223.50963464 C1919.56362985 2223.50418997 1915.34337111 2223.51056095 1911.12310069 2223.51530833 C1903.7212587 2223.52205096 1896.31944625 2223.52146305 1888.91760366 2223.51594124 C1877.83677059 2223.50771242 1866.7559612 2223.51112556 1855.67512756 2223.51670653 C1836.78452398 2223.52588357 1817.89393119 2223.52561773 1799.00332664 2223.52014477 C1779.86952392 2223.51463519 1760.73572828 2223.51348726 1741.60192512 2223.51761944 C1740.39176738 2223.51787779 1739.18160964 2223.51813613 1737.93478045 2223.51840231 C1733.00570054 2223.51946889 1728.07662064 2223.52056631 1723.14754075 2223.52170286 C1677.27453659 2223.53227275 1631.40153674 2223.5330101 1585.52853226 2223.52740796 C1584.15645393 2223.52724068 1582.78437561 2223.52707342 1581.41229729 2223.52690616 C1580.73228608 2223.52682325 1580.05227486 2223.52674034 1579.35165725 2223.52665492 C1570.38353315 2223.52556182 1561.41540904 2223.5244886 1552.44728493 2223.52346833 C1551.7617239 2223.52339 1551.07616287 2223.52331168 1550.36982727 2223.52323099 C1518.57570742 2223.51962575 1486.7815882 2223.52048644 1454.98746826 2223.52232924 C1451.51716185 2223.52252883 1448.04685545 2223.52271983 1444.57654905 2223.52291179 C1434.11618967 2223.52349299 1423.65583028 2223.52408687 1413.19547091 2223.52470699 C1381.29892047 2223.52659589 1349.40237003 2223.52779649 1317.50581955 2223.52840359 C1316.44059156 2223.5284242 1316.44059156 2223.5284242 1315.35384381 2223.52844522 C1269.37458977 2223.52932247 1223.39533643 2223.5271223 1177.41608261 2223.52270443 C1176.68225425 2223.5226342 1175.94842589 2223.52256396 1175.1923603 2223.5224916 C1150.61397386 2223.52013901 1126.03558742 2223.51762682 1101.45720099 2223.51509833 C1027.13578497 2223.50745776 952.81437148 2223.50327026 820.08452151 2223.515329 C795.51228737 2223.51785549 770.94005322 2223.52035257 746.36781906 2223.52270443 C745.63419602 2223.52277492 744.90057297 2223.52284541 744.14471893 2223.52291804 C698.18917323 2223.52732984 652.23362803 2223.52929254 606.27808212 2223.52840359 C605.2132111 2223.52838332 605.2132111 2223.52838332 604.12682753 2223.52836265 C572.24787729 2223.52774915 540.36892709 2223.52647245 508.4899769 2223.52458259 C498.03428235 2223.52396351 487.5785878 2223.52337484 477.12289325 2223.52279649 C473.65459005 2223.5226045 470.18628685 2223.5224098 466.71798365 2223.52220877 C434.92419436 2223.52037161 403.13040592 2223.51983604 371.33661674 2223.52346833 C370.65149187 2223.52354627 369.966367 2223.52362421 369.26048077 2223.52370452 C360.29752197 2223.52472804 351.33456317 2223.52581334 342.37160438 2223.52690616 C341.69213249 2223.52698899 341.0126606 2223.52707182 340.31259865 2223.52715715 C338.94177167 2223.52732427 337.5709447 2223.52749154 336.20011772 2223.52765895 C289.77417008 2223.53331386 243.34822739 2223.53155133 196.92228018 2223.52084647 C192.00884564 2223.51974178 187.0954111 2223.51866837 182.18197655 2223.51761944 C180.37323361 2223.51722882 180.37323361 2223.51722882 178.52795042 2223.51683031 C159.44702198 2223.51288802 140.36610065 2223.51562936 121.28517286 2223.52115745 C102.51584253 2223.52645255 83.74652416 2223.52458262 64.97719535 2223.51512928 C53.97899569 2223.50980096 42.98082885 2223.50988777 31.98263078 2223.51809247 C24.66798718 2223.52299869 17.353369 2223.520587 10.03872845 2223.51235876 C5.89904581 2223.50790232 1.75942826 2223.50641392 -2.38025134 2223.5139918 C-26.08599178 2223.5543533 -49.52330622 2222.70772379 -72.98304916 2219.00481732 C-73.66806503 2218.89810711 -74.3530809 2218.79139691 -75.05885483 2218.68145306 C-119.35958337 2211.74480151 -161.81907692 2197.79047081 -201.66029526 2177.2553056 C-203.61242912 2176.2525675 -205.57276804 2175.26730024 -207.53383041 2174.28216107 C-236.41966193 2159.58217925 -263.37389222 2140.41092465 -287.20179916 2118.45012982 C-288.54677897 2117.22305409 -289.90005389 2116.00441805 -291.28212143 2114.81927044 C-296.79567536 2110.08876853 -301.98086597 2105.06818341 -307.11659409 2099.93157513 C-308.534732 2098.51561785 -309.96101581 2097.10783443 -311.38734604 2095.70012982 C-316.7689889 2090.32970651 -321.74700647 2084.81200962 -326.48939682 2078.87053997 C-328.5007968 2076.38723284 -330.58536706 2074.00684957 -332.72914291 2071.63762982 C-399.0927375 1997.68165958 -427.83056303 1894.38758968 -427.73668362 1796.95991356 C-427.73803231 1794.52770808 -427.73981736 1792.09550281 -427.74199585 1789.66329793 C-427.74572414 1784.38476358 -427.74638823 1779.10624237 -427.74428991 1773.8277081 C-427.7411659 1765.92538124 -427.74384062 1758.02306333 -427.74758862 1750.12073712 C-427.7538078 1736.64839024 -427.75529688 1723.17604657 -427.75417114 1709.70369847 C-427.75304527 1696.05771086 -427.75408572 1682.41172598 -427.75774361 1668.7657388 C-427.75797326 1667.90263022 -427.75820291 1667.03952164 -427.75843953 1666.15025826 C-427.75938121 1662.63471098 -427.7603369 1659.11916372 -427.76131072 1655.60361645 C-427.77144609 1618.96043106 -427.77451637 1582.31724719 -427.77510283 1545.67406056 C-427.77516758 1541.73182695 -427.77523552 1537.78959334 -427.77530624 1533.84735973 C-427.77532324 1532.86904204 -427.77534024 1531.89072436 -427.77535776 1530.88276068 C-427.77576651 1509.18749221 -427.77795735 1487.49222403 -427.78046208 1465.79695571 C-427.78149046 1456.85893739 -427.78248051 1447.92091907 -427.78347833 1438.98290075 C-427.78358892 1437.99527432 -427.78369951 1437.00764788 -427.78381345 1435.99009338 C-427.79013627 1379.40510522 -427.7942627 1322.82011724 -427.79380489 1266.23512871 C-427.79378912 1264.11820034 -427.79377338 1262.00127197 -427.79375769 1259.8843436 C-427.7936843 1250.32694829 -427.79359613 1240.76955298 -427.7935038 1231.21215767 C-427.79346268 1226.95042205 -427.79342253 1222.68868643 -427.79338249 1218.42695081 C-427.79336209 1216.2938769 -427.79334107 1214.16080299 -427.79331943 1212.02772908 C-427.79263932 1144.59048347 -427.79995476 1077.1532431 -427.81385971 1009.71599896 C-427.81736087 992.72662767 -427.8208304 975.73725639 -427.82412411 958.74788506 C-427.82432698 957.70171219 -427.82452986 956.65553931 -427.82473888 955.57766423 C-427.83095639 923.32019112 -427.83471993 891.06271844 -427.83598209 858.80524475 C-427.83602205 857.79209557 -427.836062 856.77894638 -427.83610316 855.73509571 C-427.83695654 833.49114721 -427.83721759 811.24719874 -427.83693278 789.00325023 C-427.8368363 781.04340328 -427.83678425 773.08355633 -427.83675405 765.12370938 C-427.83674614 763.14358356 -427.83673593 761.16345774 -427.83672343 759.18333192 C-427.8365473 727.66751322 -427.8422371 696.15169902 -427.85087724 664.63588161 C-427.85953842 632.88188211 -427.86170882 601.12788884 -427.85511592 569.37388865 C-427.85420372 564.97902828 -427.85336042 560.58416791 -427.85255791 556.18930752 C-427.85239782 555.32785638 -427.85223773 554.46640524 -427.85207279 553.57884952 C-427.84972645 539.97857328 -427.8540619 526.37830786 -427.86122909 512.77803365 C-427.86814767 499.38107133 -427.86784386 485.98412488 -427.86003696 472.58716288 C-427.85605941 465.4307987 -427.85515424 458.27446952 -427.86349431 451.11810813 C-427.95392363 369.25914937 -417.07405519 296.05319646 -379.60804916 222.25481732 C-379.15526596 221.35392376 -378.70248276 220.45303021 -378.23597885 219.52483685 C-372.44936535 208.11969505 -365.615841 197.45545611 -358.54554916 186.81731732 C-358.12811447 186.18810376 -357.71067978 185.55889019 -357.28059555 184.91060955 C-346.93937046 169.3784342 -335.54049134 154.61578376 -322.94398666 140.83684857 C-321.66771061 139.42611534 -320.3978662 138.00901854 -319.16151596 136.56316693 C-314.39744239 131.00354757 -309.30599483 125.79958093 -304.12001206 120.63640912 C-302.67280531 119.19456511 -301.23102891 117.74744616 -299.78968979 116.29973919 C-294.56699382 111.07256618 -289.25741305 106.01924383 -283.60804916 101.25481732 C-282.97423325 100.7142973 -282.34041733 100.17377728 -281.68739487 99.61687787 C-271.05288324 90.59628309 -260.04524501 82.22837448 -248.60804916 74.25481732 C-247.99316635 73.82249798 -247.37828354 73.39017865 -246.74476791 72.94475872 C-234.84115283 64.6142077 -222.24185273 57.40950739 -209.60804916 50.25481732 C-208.4515184 49.59884564 -208.4515184 49.59884564 -207.27162338 48.92962201 C-186.77329372 37.41327906 -164.86101112 28.72204531 -142.60804916 21.25481732 C-141.58163315 20.90822064 -140.55521713 20.56162396 -139.4976976 20.20452435 C-116.89882642 12.66566557 -93.73347878 7.38990034 -70.17054916 3.94231732 C-68.66742172 3.72140423 -68.66742172 3.72140423 -67.13392807 3.49602826 C-44.80877779 0.47787433 -22.48777097 -0.04116493 0 0 Z M-41.60804916 282.25481732 C-42.47518718 282.45735011 -43.3423252 282.65988289 -44.23574013 282.86855304 C-55.52644473 285.67767743 -67.95522567 289.64084566 -77.60804916 296.25481732 C-77.60804916 296.91481732 -77.60804916 297.57481732 -77.60804916 298.25481732 C-75.46694015 299.81697911 -75.46694015 299.81697911 -72.73304916 301.40716107 C-67.08405187 304.90256844 -61.84720314 308.74152212 -56.60804916 312.81731732 C-54.76527593 314.23655523 -52.92150561 315.65449933 -51.07679916 317.07122357 C-50.16027573 317.77521283 -49.24375229 318.47920208 -48.29945541 319.20452435 C-44.27264932 322.27211484 -40.19390592 325.26658278 -36.10804916 328.25481732 C-28.48022138 333.84084476 -20.95158969 339.54759128 -13.44398666 345.29387982 C-7.70902189 349.67546057 -1.93045353 353.99024689 3.89195084 358.25481732 C11.519351 363.84144152 19.04839648 369.5475807 26.55601334 375.29387982 C32.29097811 379.67546057 38.06954647 383.99024689 43.89195084 388.25481732 C51.519351 393.84144152 59.04839648 399.5475807 66.55601334 405.29387982 C72.29097811 409.67546057 78.06954647 413.99024689 83.89195084 418.25481732 C91.519351 423.84144152 99.04839648 429.5475807 106.55601334 435.29387982 C112.29097811 439.67546057 118.06954647 443.99024689 123.89195084 448.25481732 C131.519351 453.84144152 139.04839648 459.5475807 146.55601334 465.29387982 C152.29097811 469.67546057 158.06954647 473.99024689 163.89195084 478.25481732 C171.519351 483.84144152 179.04839648 489.5475807 186.55601334 495.29387982 C192.29097811 499.67546057 198.06954647 503.99024689 203.89195084 508.25481732 C211.519351 513.84144152 219.04839648 519.5475807 226.55601334 525.29387982 C232.29097811 529.67546057 238.06954647 533.99024689 243.89195084 538.25481732 C251.519351 543.84144152 259.04839648 549.5475807 266.55601334 555.29387982 C272.29097811 559.67546057 278.06954647 563.99024689 283.89195084 568.25481732 C291.519351 573.84144152 299.04839648 579.5475807 306.55601334 585.29387982 C312.29097811 589.67546057 318.06954647 593.99024689 323.89195084 598.25481732 C331.519351 603.84144152 339.04839648 609.5475807 346.55601334 615.29387982 C352.29097811 619.67546057 358.06954647 623.99024689 363.89195084 628.25481732 C371.519351 633.84144152 379.04839648 639.5475807 386.55601334 645.29387982 C392.29097811 649.67546057 398.06954647 653.99024689 403.89195084 658.25481732 C411.519351 663.84144152 419.04839648 669.5475807 426.55601334 675.29387982 C432.29097811 679.67546057 438.06954647 683.99024689 443.89195084 688.25481732 C451.519351 693.84144152 459.04839648 699.5475807 466.55601334 705.29387982 C472.29097811 709.67546057 478.06954647 713.99024689 483.89195084 718.25481732 C491.519351 723.84144152 499.04839648 729.5475807 506.55601334 735.29387982 C512.29097811 739.67546057 518.06954647 743.99024689 523.89195084 748.25481732 C531.519351 753.84144152 539.04839648 759.5475807 546.55601334 765.29387982 C552.29097811 769.67546057 558.06954647 773.99024689 563.89195084 778.25481732 C571.519351 783.84144152 579.04839648 789.5475807 586.55601334 795.29387982 C592.29097811 799.67546057 598.06954647 803.99024689 603.89195084 808.25481732 C611.519351 813.84144152 619.04839648 819.5475807 626.55601334 825.29387982 C632.29097811 829.67546057 638.06954647 833.99024689 643.89195084 838.25481732 C651.519351 843.84144152 659.04839648 849.5475807 666.55601334 855.29387982 C672.29097811 859.67546057 678.06954647 863.99024689 683.89195084 868.25481732 C691.519351 873.84144152 699.04839648 879.5475807 706.55601334 885.29387982 C712.29097811 889.67546057 718.06954647 893.99024689 723.89195084 898.25481732 C731.519351 903.84144152 739.04839648 909.5475807 746.55601334 915.29387982 C753.0578366 920.26134951 759.62405345 925.13284682 766.22788834 929.96355755 C771.27867441 933.66827138 776.26634341 937.44596308 781.2288649 941.26800091 C844.01350862 989.58247647 917.41548352 1015.00717186 997.07554459 1005.28216107 C1026.23465653 1001.36085706 1054.989023 993.40039019 1081.39195084 980.25481732 C1082.29493912 979.80880169 1083.1979274 979.36278607 1084.12827896 978.90325482 C1096.43642865 972.77784167 1108.24764513 966.31520007 1119.39195084 958.25481732 C1120.09674576 957.74757122 1120.80154068 957.24032513 1121.52769302 956.71770794 C1131.66798115 949.391492 1141.62048013 941.81943262 1151.55454849 934.21721966 C1158.05688031 929.24851319 1164.62611734 924.37929068 1171.22788834 919.54387982 C1177.16866517 915.18204699 1183.03948344 910.73427183 1188.89195084 906.25481732 C1196.27836875 900.60128337 1203.72389549 895.04011538 1211.22788834 889.54387982 C1217.16866517 885.18204699 1223.03948344 880.73427183 1228.89195084 876.25481732 C1236.27836875 870.60128337 1243.72389549 865.04011538 1251.22788834 859.54387982 C1257.16866517 855.18204699 1263.03948344 850.73427183 1268.89195084 846.25481732 C1276.27836875 840.60128337 1283.72389549 835.04011538 1291.22788834 829.54387982 C1297.16866517 825.18204699 1303.03948344 820.73427183 1308.89195084 816.25481732 C1316.27836875 810.60128337 1323.72389549 805.04011538 1331.22788834 799.54387982 C1337.16866517 795.18204699 1343.03948344 790.73427183 1348.89195084 786.25481732 C1356.27836875 780.60128337 1363.72389549 775.04011538 1371.22788834 769.54387982 C1377.16866517 765.18204699 1383.03948344 760.73427183 1388.89195084 756.25481732 C1396.27836875 750.60128337 1403.72389549 745.04011538 1411.22788834 739.54387982 C1417.16866517 735.18204699 1423.03948344 730.73427183 1428.89195084 726.25481732 C1436.27836875 720.60128337 1443.72389549 715.04011538 1451.22788834 709.54387982 C1457.16866517 705.18204699 1463.03948344 700.73427183 1468.89195084 696.25481732 C1476.27836875 690.60128337 1483.72389549 685.04011538 1491.22788834 679.54387982 C1497.16866517 675.18204699 1503.03948344 670.73427183 1508.89195084 666.25481732 C1516.27836875 660.60128337 1523.72389549 655.04011538 1531.22788834 649.54387982 C1537.16866517 645.18204699 1543.03948344 640.73427183 1548.89195084 636.25481732 C1556.27836875 630.60128337 1563.72389549 625.04011538 1571.22788834 619.54387982 C1577.16866517 615.18204699 1583.03948344 610.73427183 1588.89195084 606.25481732 C1596.27836875 600.60128337 1603.72389549 595.04011538 1611.22788834 589.54387982 C1617.16866517 585.18204699 1623.03948344 580.73427183 1628.89195084 576.25481732 C1636.27836875 570.60128337 1643.72389549 565.04011538 1651.22788834 559.54387982 C1657.16866517 555.18204699 1663.03948344 550.73427183 1668.89195084 546.25481732 C1676.27836875 540.60128337 1683.72389549 535.04011538 1691.22788834 529.54387982 C1697.16866517 525.18204699 1703.03948344 520.73427183 1708.89195084 516.25481732 C1716.27836875 510.60128337 1723.72389549 505.04011538 1731.22788834 499.54387982 C1737.16866517 495.18204699 1743.03948344 490.73427183 1748.89195084 486.25481732 C1756.27836875 480.60128337 1763.72389549 475.04011538 1771.22788834 469.54387982 C1777.16866517 465.18204699 1783.03948344 460.73427183 1788.89195084 456.25481732 C1796.27836875 450.60128337 1803.72389549 445.04011538 1811.22788834 439.54387982 C1817.16866517 435.18204699 1823.03948344 430.73427183 1828.89195084 426.25481732 C1836.27836875 420.60128337 1843.72389549 415.04011538 1851.22788834 409.54387982 C1857.16866517 405.18204699 1863.03948344 400.73427183 1868.89195084 396.25481732 C1876.27836875 390.60128337 1883.72389549 385.04011538 1891.22788834 379.54387982 C1897.16866517 375.18204699 1903.03948344 370.73427183 1908.89195084 366.25481732 C1916.27836875 360.60128337 1923.72389549 355.04011538 1931.22788834 349.54387982 C1937.16866653 345.182046 1943.03943781 340.73421392 1948.89195084 336.25481732 C1956.38847817 330.51808029 1963.93760427 324.86242656 1971.55308365 319.28460247 C1975.35165393 316.50107051 1979.13610568 313.70256503 1982.88804459 310.85637982 C1983.60564957 310.31271771 1984.32325455 309.7690556 1985.06260513 309.20891888 C1986.39618305 308.19617003 1987.72730628 307.1801759 1989.05528091 306.16009076 C1993.00974389 303.15938551 1997.03378189 300.63504805 2001.39195084 298.25481732 C2001.39195084 297.59481732 2001.39195084 296.93481732 2001.39195084 296.25481732 C1986.85334526 288.3544175 1971.70687452 283.10020551 1955.39195084 280.25481732 C1954.45119262 280.08125138 1953.51043441 279.90768544 1952.54116837 279.72885993 C1946.69535708 278.9116792 1940.78052722 279.11726279 1934.89118897 279.12716682 C1933.50034026 279.12592329 1932.10949188 279.12424209 1930.71864416 279.12216446 C1926.8829461 279.11771055 1923.04727217 279.11949428 1919.21157346 279.12226624 C1915.02823373 279.12418699 1910.84489872 279.12030761 1906.66156029 279.11716945 C1899.29685112 279.11245155 1891.93214868 279.11147233 1884.56743825 279.11289779 C1873.5420267 279.11501612 1862.51662212 279.11140956 1851.49121164 279.10668302 C1832.70234595 279.09880281 1813.91348216 279.09572063 1795.12461494 279.09523709 C1776.07678787 279.09473506 1757.02896292 279.09209188 1737.98113655 279.08682949 C1736.7792306 279.08649936 1735.57732464 279.08616923 1734.33899729 279.08582909 C1729.44401355 279.08447913 1724.54902982 279.08311646 1719.65404609 279.08173698 C1665.80236237 279.06658775 1611.95067911 279.0597939 1558.09899375 279.05531502 C1557.07718964 279.05522999 1557.07718964 279.05522999 1556.03474304 279.05514323 C1552.58907248 279.05485671 1549.14340193 279.05457168 1545.69773137 279.05428911 C1516.830238 279.05191407 1487.96274487 279.04820441 1459.09525168 279.04425202 C1445.27106997 279.04235944 1431.44688825 279.04053093 1417.62270652 279.03871782 C1416.9351696 279.03862763 1416.24763267 279.03853744 1415.5392613 279.03844452 C1382.44867875 279.03410824 1349.35809616 279.03017992 1316.2675135 279.0267175 C1315.56162827 279.02664362 1314.85574303 279.02656975 1314.12846734 279.02649364 C1269.1415858 279.02179854 1224.15470434 279.0189756 1179.1678226 279.01733072 C1175.47936728 279.01719514 1171.79091196 279.01705611 1168.10245664 279.01691717 C1162.18895916 279.0166947 1156.27546167 279.01647333 1150.36196419 279.0162533 C1149.62918045 279.01622602 1148.89639671 279.01619875 1148.1414074 279.01617066 C1146.66039222 279.01611554 1145.17937705 279.01606043 1143.69836187 279.01600533 C1133.30944726 279.01561871 1122.92053265 279.01523077 1112.53161804 279.01483619 C1108.81424737 279.01469509 1105.09687671 279.01455501 1101.37950604 279.0144173 C1031.17269519 279.01181316 960.96588654 279.00648359 890.7590773 278.99053509 C889.65050701 278.9902834 889.65050701 278.9902834 888.51954136 278.99002663 C865.42850852 278.98477594 842.33747577 278.97920158 819.24644302 278.97356732 C795.5533844 278.96778633 771.86032577 278.96205577 748.16726707 278.95661099 C747.43774122 278.95644318 746.70821537 278.95627537 745.95658267 278.95610248 C700.26582846 278.94560899 654.57507486 278.93874761 608.88431953 278.93574459 C608.17860007 278.93569778 607.4728806 278.93565097 606.7457757 278.93560274 C575.7517359 278.93355206 544.75769612 278.932308 513.76365626 278.93195668 C501.29450495 278.93181342 488.82535364 278.93157476 476.35620233 278.93129263 C474.28875838 278.9312471 472.22131444 278.93120544 470.15387049 278.93116452 C438.53298773 278.93051847 406.9121075 278.9275618 375.29122614 278.91770394 C374.6093995 278.91749157 373.92757287 278.9172792 373.22508482 278.91706039 C362.25717078 278.91363164 351.2892568 278.91001866 340.32134283 278.90638399 C295.36898798 278.89149441 250.4166408 278.88592039 205.46428328 278.89412657 C199.34844745 278.89524197 193.2326116 278.89625263 187.11677574 278.89720089 C185.31844521 278.89748585 185.31844521 278.89748585 183.48378477 278.89777655 C164.49036395 278.90051162 145.49696092 278.89316368 126.50354397 278.88162753 C107.8329709 278.87049676 89.162423 278.87004544 70.49184954 278.88099771 C59.54243725 278.88709951 48.59310089 278.8849851 37.64369574 278.87074574 C30.37137699 278.86210772 23.0991141 278.864356 15.82679881 278.87544445 C11.70456863 278.88142545 7.5824873 278.8828079 3.46026703 278.87075959 C-19.24603387 278.68847789 -19.24603387 278.68847789 -41.60804916 282.25481732 Z M-148.60804916 592.25481732 C-148.62454464 629.63274674 -148.6403603 667.01067645 -148.65565659 704.38860638 C-148.65595598 705.12005709 -148.65625537 705.85150781 -148.65656384 706.60512369 C-148.68863093 784.99378554 -148.71629885 863.38244748 -148.73507858 941.7711137 C-148.73549694 943.51269688 -148.73591529 945.25428006 -148.73633365 946.99586324 C-148.74510205 983.55361776 -148.75325216 1020.1113724 -148.7606882 1056.66912722 C-148.76442433 1075.033796 -148.76827925 1093.39846476 -148.77224649 1111.76313349 C-148.77284424 1114.53334294 -148.77343859 1117.30355238 -148.77403281 1120.07376183 C-148.78321077 1162.72186379 -148.79493346 1205.36996318 -148.81404282 1248.01806195 C-148.81445351 1248.93476 -148.81486421 1249.85145805 -148.81528735 1250.79593482 C-148.82192431 1265.57545112 -148.8287752 1280.35496732 -148.83565449 1295.1344835 C-148.8554701 1337.71353321 -148.8736991 1380.29258094 -148.88146854 1422.87163479 C-148.88162915 1423.74758281 -148.88178976 1424.62353084 -148.88195523 1425.52602274 C-148.88545284 1444.75705996 -148.88813726 1463.98809721 -148.89005211 1483.21913466 C-148.89083696 1490.95752781 -148.89173882 1498.69592095 -148.89268089 1506.43431408 C-148.89278118 1507.28123765 -148.89288146 1508.12816122 -148.89298478 1509.00074914 C-148.89627189 1536.27061545 -148.90907756 1563.54046706 -148.92689579 1590.81032744 C-148.94480707 1618.28947232 -148.95334222 1645.76860294 -148.94892113 1673.2477538 C-148.94831192 1677.048801 -148.94780976 1680.84984821 -148.94737221 1684.65089543 C-148.94728257 1685.39598094 -148.94719293 1686.14106646 -148.94710057 1686.90873032 C-148.94596052 1698.68639064 -148.95489534 1710.46402071 -148.96807875 1722.2416728 C-148.98084749 1733.83517295 -148.98259507 1745.42862545 -148.97354461 1757.0221303 C-148.96901826 1763.21895507 -148.96919778 1769.41567918 -148.98269871 1775.61249314 C-148.99490654 1781.25880686 -148.99309355 1786.90494208 -148.98046909 1792.55125331 C-148.97834031 1794.57275267 -148.98115587 1796.59426545 -148.9897549 1798.61574763 C-149.14780622 1838.3131997 -137.12792555 1873.14094469 -109.60804916 1902.25481732 C-108.48849838 1903.47104779 -108.48849838 1903.47104779 -107.34633041 1904.71184857 C-87.14116429 1925.91892375 -60.15163879 1938.17210568 -31.60804916 1943.25481732 C-30.65141937 1943.43144478 -29.69478958 1943.60807224 -28.709171 1943.79005205 C-22.88052708 1944.6013187 -16.9787707 1944.39234182 -11.1072873 1944.38246782 C-9.71643859 1944.38371135 -8.32559021 1944.38539254 -6.93474249 1944.38747018 C-3.09904443 1944.39192408 0.7366295 1944.39014036 4.57232822 1944.38736839 C8.75566794 1944.38544765 12.93900295 1944.38932703 17.12234138 1944.39246519 C24.48705055 1944.39718309 31.85175299 1944.39816231 39.21646342 1944.39673684 C50.24187497 1944.39461852 61.26727955 1944.39822508 72.29269003 1944.40295162 C91.08155572 1944.41083182 109.87041951 1944.413914 128.65928673 1944.41439755 C147.7071138 1944.41489957 166.75493875 1944.41754276 185.80276512 1944.42280514 C187.60562405 1944.42330034 187.60562405 1944.42330034 189.44490438 1944.42380555 C194.33988812 1944.42515551 199.23487185 1944.42651818 204.12985558 1944.42789765 C257.9815393 1944.44304689 311.83322256 1944.44984074 365.68490792 1944.45431962 C366.70671203 1944.45440465 366.70671203 1944.45440465 367.74915864 1944.4544914 C371.19482919 1944.45477793 374.64049974 1944.45506296 378.0861703 1944.45534552 C406.95366367 1944.45772057 435.8211568 1944.46143023 464.68864999 1944.46538262 C478.5128317 1944.4672752 492.33701342 1944.4691037 506.16119515 1944.47091682 C506.84873207 1944.47100701 507.536269 1944.4710972 508.24464037 1944.47119012 C541.33522292 1944.47552639 574.42580551 1944.47945471 607.51638817 1944.48291714 C608.2222734 1944.48299101 608.92815864 1944.48306489 609.65543433 1944.483141 C654.64231587 1944.48783609 699.62919733 1944.49065904 744.61607907 1944.49230392 C748.30453439 1944.4924395 751.99298971 1944.49257853 755.68144503 1944.49271746 C761.59494251 1944.49293994 767.50844 1944.4931613 773.42193748 1944.49338134 C774.15472122 1944.49340861 774.88750496 1944.49343588 775.64249427 1944.49346398 C777.12350945 1944.49351909 778.60452462 1944.4935742 780.0855398 1944.49362931 C790.47445441 1944.49401593 800.86336902 1944.49440387 811.25228363 1944.49479844 C814.9696543 1944.49493955 818.68702496 1944.49507962 822.40439563 1944.49521734 C892.61120648 1944.49782148 962.81801513 1944.50315104 1033.02482437 1944.51909954 C1033.76387123 1944.51926734 1034.50291809 1944.51943513 1035.26436031 1944.51960801 C1058.35539315 1944.5248587 1081.4464259 1944.53043305 1104.53745865 1944.53606732 C1128.23051727 1944.54184831 1151.9235759 1944.54757887 1175.6166346 1944.55302365 C1176.34616045 1944.55319145 1177.0756863 1944.55335926 1177.827319 1944.55353216 C1223.51807322 1944.56402565 1269.20882682 1944.57088703 1314.89958214 1944.57389004 C1315.6053016 1944.57393685 1316.31102107 1944.57398366 1317.03812597 1944.57403189 C1348.03216577 1944.57608258 1379.02620555 1944.57732664 1410.02024541 1944.57767795 C1422.48939672 1944.57782122 1434.95854803 1944.57805988 1447.42769934 1944.57834201 C1449.49514329 1944.57838754 1451.56258723 1944.57842919 1453.63003118 1944.57847012 C1485.25091394 1944.57911616 1516.87179417 1944.58207283 1548.49267553 1944.5919307 C1549.51541549 1944.59224926 1549.51541549 1944.59224926 1550.55881685 1944.59257425 C1561.52673089 1944.596003 1572.49464487 1944.59961597 1583.46255884 1944.60325065 C1628.41491369 1944.61814022 1673.36726087 1944.62371424 1718.31961839 1944.61550806 C1724.43545422 1944.61439266 1730.55129007 1944.61338201 1736.66712593 1944.61243374 C1738.46545646 1944.61214879 1738.46545646 1944.61214879 1740.3001169 1944.61185808 C1759.29353772 1944.60912302 1778.28694075 1944.61647095 1797.2803577 1944.62800711 C1815.95093077 1944.63913788 1834.62147867 1944.6395892 1853.29205213 1944.62863693 C1864.24146442 1944.62253512 1875.19080078 1944.62464954 1886.14020593 1944.6388889 C1893.41252468 1944.64752692 1900.68478757 1944.64527863 1907.95710286 1944.63419019 C1912.07933304 1944.62820919 1916.20141437 1944.62682673 1920.32363464 1944.63887505 C1943.02927966 1944.81737333 1943.02927966 1944.81737333 1965.39195084 1941.25481732 C1966.24852458 1941.05756667 1967.10509833 1940.86031601 1967.98762886 1940.65708807 C1990.53139538 1935.14587113 2010.42136119 1923.97103631 2027.39195084 1908.25481732 C2027.93448502 1907.75611126 2028.47701919 1907.25740521 2029.0359938 1906.74358685 C2054.38407741 1883.18005592 2071.01676398 1849.9316582 2072.48393014 1815.06922847 C2072.5181945 1812.80634153 2072.52338231 1810.54542887 2072.51614933 1808.282295 C2072.51742742 1807.42011875 2072.5187055 1806.55794251 2072.52002232 1805.66963971 C2072.52308113 1802.78511017 2072.51902594 1799.90063557 2072.51499866 1797.01610787 C2072.51573854 1794.91646893 2072.51691738 1792.8168301 2072.51849516 1790.71719162 C2072.52156668 1784.92941908 2072.51838697 1779.14166408 2072.51421703 1773.35389284 C2072.51078539 1767.06420992 2072.51315314 1760.7745288 2072.51479452 1754.48484553 C2072.51686971 1743.45559081 2072.51525472 1732.42634233 2072.51115631 1721.39708836 C2072.50677823 1709.56308496 2072.50458372 1697.72908415 2072.50505852 1685.89507992 C2072.50508721 1685.14764416 2072.5051159 1684.4002084 2072.50514546 1683.63012308 C2072.50530184 1679.81894815 2072.50549379 1676.00777322 2072.5056983 1672.19659829 C2072.50710584 1644.6104783 2072.50367482 1617.0243606 2072.49768089 1589.43824131 C2072.49175894 1562.11814868 2072.48790591 1534.79805703 2072.48682808 1507.47796376 C2072.48679367 1506.62958502 2072.48675925 1505.78120629 2072.4867238 1504.90711911 C2072.4864106 1497.15851453 2072.48612291 1489.40990996 2072.48586583 1481.66130539 C2072.48522642 1462.39892775 2072.48426709 1443.13655013 2072.48309063 1423.87417252 C2072.48303731 1422.99699513 2072.48298399 1422.11981774 2072.48292906 1421.21605922 C2072.48030738 1378.54383824 2072.47399976 1335.87161791 2072.46739029 1293.1993974 C2072.46509863 1278.39072227 2072.46282327 1263.58204714 2072.46061539 1248.77337201 C2072.46047844 1247.85493962 2072.46034149 1246.93650723 2072.46020039 1245.99024356 C2072.45385659 1203.29657414 2072.45013081 1160.6029046 2072.44708059 1117.90923483 C2072.44688253 1115.1376125 2072.44668333 1112.36599016 2072.44648391 1109.59436783 C2072.44516413 1091.22671951 2072.44388948 1072.85907118 2072.44264505 1054.49142285 C2072.44016853 1017.94419708 2072.43742685 981.39697133 2072.43450301 944.8497456 C2072.43436377 943.10926181 2072.43422471 941.36877801 2072.43408584 939.62829422 C2072.42783257 861.27325147 2072.41849456 782.91820919 2072.40781998 704.56316693 C2072.40772004 703.82946311 2072.40762011 703.09575929 2072.40751714 702.33982203 C2072.40251666 665.64482043 2072.39734014 628.94981886 2072.39195084 592.25481732 C2070.97722165 593.18731221 2069.56393143 594.1219904 2068.15122818 595.05755169 C2066.97045196 595.83793805 2066.97045196 595.83793805 2065.76582169 596.63408978 C2062.0483633 599.17213315 2058.54094261 601.95754136 2055.01695084 604.75481732 C2048.78092355 609.65580961 2042.48205054 614.44857667 2036.07945084 619.12981732 C2029.29032181 624.09535634 2022.57047112 629.14146977 2015.89195084 634.25481732 C2008.50563075 639.90847693 2001.06000351 645.46952121 1993.55601334 650.96575482 C1987.6152365 655.32758764 1981.74441823 659.7753628 1975.89195084 664.25481732 C1968.50553292 669.90835127 1961.06000618 675.46951926 1953.55601334 680.96575482 C1947.6152365 685.32758764 1941.74441823 689.7753628 1935.89195084 694.25481732 C1928.50553292 699.90835127 1921.06000618 705.46951926 1913.55601334 710.96575482 C1907.6152365 715.32758764 1901.74441823 719.7753628 1895.89195084 724.25481732 C1888.50553292 729.90835127 1881.06000618 735.46951926 1873.55601334 740.96575482 C1867.6152365 745.32758764 1861.74441823 749.7753628 1855.89195084 754.25481732 C1848.50553292 759.90835127 1841.06000618 765.46951926 1833.55601334 770.96575482 C1827.6152365 775.32758764 1821.74441823 779.7753628 1815.89195084 784.25481732 C1808.50553292 789.90835127 1801.06000618 795.46951926 1793.55601334 800.96575482 C1787.6152365 805.32758764 1781.74441823 809.7753628 1775.89195084 814.25481732 C1768.50553292 819.90835127 1761.06000618 825.46951926 1753.55601334 830.96575482 C1747.6152365 835.32758764 1741.74441823 839.7753628 1735.89195084 844.25481732 C1728.50553292 849.90835127 1721.06000618 855.46951926 1713.55601334 860.96575482 C1707.6152365 865.32758764 1701.74441823 869.7753628 1695.89195084 874.25481732 C1688.50553292 879.90835127 1681.06000618 885.46951926 1673.55601334 890.96575482 C1667.6152365 895.32758764 1661.74441823 899.7753628 1655.89195084 904.25481732 C1648.50553292 909.90835127 1641.06000618 915.46951926 1633.55601334 920.96575482 C1627.6152365 925.32758764 1621.74441823 929.7753628 1615.89195084 934.25481732 C1608.50553292 939.90835127 1601.06000618 945.46951926 1593.55601334 950.96575482 C1587.6152365 955.32758764 1581.74441823 959.7753628 1575.89195084 964.25481732 C1568.50553292 969.90835127 1561.06000618 975.46951926 1553.55601334 980.96575482 C1547.6152365 985.32758764 1541.74441823 989.7753628 1535.89195084 994.25481732 C1528.50553292 999.90835127 1521.06000618 1005.46951926 1513.55601334 1010.96575482 C1507.6152365 1015.32758764 1501.74441823 1019.7753628 1495.89195084 1024.25481732 C1488.50553292 1029.90835127 1481.06000618 1035.46951926 1473.55601334 1040.96575482 C1467.6152365 1045.32758764 1461.74441823 1049.7753628 1455.89195084 1054.25481732 C1448.50553292 1059.90835127 1441.06000618 1065.46951926 1433.55601334 1070.96575482 C1427.6152365 1075.32758764 1421.74441823 1079.7753628 1415.89195084 1084.25481732 C1408.50553292 1089.90835127 1401.06000618 1095.46951926 1393.55601334 1100.96575482 C1387.6152365 1105.32758764 1381.74441823 1109.7753628 1375.89195084 1114.25481732 C1368.50553292 1119.90835127 1361.06000618 1125.46951926 1353.55601334 1130.96575482 C1347.61523472 1135.32758895 1341.74447994 1139.7754414 1335.89195084 1144.25481732 C1328.47406514 1149.93100005 1321.00654547 1155.52977372 1313.46812271 1161.04485638 C1309.51948705 1163.9369299 1305.59345562 1166.8519955 1301.70835709 1169.82903607 C1281.8668663 1185.00373034 1261.03907778 1198.79004294 1239.39195084 1211.25481732 C1238.68441666 1211.66570599 1237.97688248 1212.07659466 1237.24790787 1212.49993451 C1175.82967101 1248.02407151 1107.59489861 1270.57362746 1037.39195084 1280.25481732 C1036.28577408 1280.40789349 1035.17959732 1280.56096966 1034.03990005 1280.71868451 C1006.90534751 1284.35186515 978.77683623 1286.22129192 951.39195084 1285.25481732 C950.75936356 1285.23290326 950.12677627 1285.21098919 949.47501968 1285.18841107 C896.2037245 1283.29879598 844.35737472 1275.27544462 793.39195084 1259.25481732 C792.40630142 1258.94995404 791.42065201 1258.64509076 790.40513443 1258.33098919 C762.01143016 1249.500571 734.90632129 1237.62797792 708.39195084 1224.25481732 C707.41129654 1223.76239544 706.43064224 1223.26997357 705.42027115 1222.76262982 C675.71380562 1207.7696141 647.85668288 1189.38214586 621.39195084 1169.25481732 C620.55502701 1168.61834271 619.71810318 1167.9818681 618.85581802 1167.32610638 C615.30988996 1164.62614109 611.76597633 1161.92358532 608.22642349 1159.21526654 C602.49249917 1154.83311408 596.7139622 1150.51909989 590.89195084 1146.25481732 C583.26455067 1140.66819312 575.73550519 1134.96205393 568.22788834 1129.21575482 C562.49292356 1124.83417406 556.71435521 1120.51938774 550.89195084 1116.25481732 C543.26455067 1110.66819312 535.73550519 1104.96205393 528.22788834 1099.21575482 C522.49292356 1094.83417406 516.71435521 1090.51938774 510.89195084 1086.25481732 C503.26455067 1080.66819312 495.73550519 1074.96205393 488.22788834 1069.21575482 C482.49292356 1064.83417406 476.71435521 1060.51938774 470.89195084 1056.25481732 C463.26455067 1050.66819312 455.73550519 1044.96205393 448.22788834 1039.21575482 C442.49292356 1034.83417406 436.71435521 1030.51938774 430.89195084 1026.25481732 C423.26455067 1020.66819312 415.73550519 1014.96205393 408.22788834 1009.21575482 C402.49292356 1004.83417406 396.71435521 1000.51938774 390.89195084 996.25481732 C383.26455067 990.66819312 375.73550519 984.96205393 368.22788834 979.21575482 C362.49292356 974.83417406 356.71435521 970.51938774 350.89195084 966.25481732 C343.26455067 960.66819312 335.73550519 954.96205393 328.22788834 949.21575482 C322.49292356 944.83417406 316.71435521 940.51938774 310.89195084 936.25481732 C303.26455067 930.66819312 295.73550519 924.96205393 288.22788834 919.21575482 C282.49292356 914.83417406 276.71435521 910.51938774 270.89195084 906.25481732 C263.26455067 900.66819312 255.73550519 894.96205393 248.22788834 889.21575482 C242.49292356 884.83417406 236.71435521 880.51938774 230.89195084 876.25481732 C223.26455067 870.66819312 215.73550519 864.96205393 208.22788834 859.21575482 C202.49292356 854.83417406 196.71435521 850.51938774 190.89195084 846.25481732 C183.26455067 840.66819312 175.73550519 834.96205393 168.22788834 829.21575482 C162.49292356 824.83417406 156.71435521 820.51938774 150.89195084 816.25481732 C143.26455067 810.66819312 135.73550519 804.96205393 128.22788834 799.21575482 C122.49292356 794.83417406 116.71435521 790.51938774 110.89195084 786.25481732 C103.26455067 780.66819312 95.73550519 774.96205393 88.22788834 769.21575482 C82.49292356 764.83417406 76.71435521 760.51938774 70.89195084 756.25481732 C63.26455067 750.66819312 55.73550519 744.96205393 48.22788834 739.21575482 C42.49292356 734.83417406 36.71435521 730.51938774 30.89195084 726.25481732 C23.26455067 720.66819312 15.73550519 714.96205393 8.22788834 709.21575482 C2.49292356 704.83417406 -3.28564479 700.51938774 -9.10804916 696.25481732 C-16.73544933 690.66819312 -24.26449481 684.96205393 -31.77211166 679.21575482 C-37.50707644 674.83417406 -43.28564479 670.51938774 -49.10804916 666.25481732 C-56.73544933 660.66819312 -64.26449481 654.96205393 -71.77211166 649.21575482 C-77.50707644 644.83417406 -83.28564479 640.51938774 -89.10804916 636.25481732 C-96.72657906 630.67469007 -104.24740918 624.97587927 -111.74574448 619.23553021 C-118.48223734 614.08803358 -125.28200962 609.03286553 -132.12953354 604.03411419 C-136.77859145 600.63368419 -141.33888073 597.14258277 -145.8492601 593.55974896 C-147.37689472 592.15550834 -147.37689472 592.15550834 -148.60804916 592.25481732 Z " fill="#FEFEFE" transform="translate(427.60804916452616,277.74518268182874)"/>
</svg>
